<svg width="21" height="25" viewBox="0 0 21 25" fill="none" xmlns="http://www.w3.org/2000/svg">
<path fill-rule="evenodd" clip-rule="evenodd" d="M10.3432 0.941986L4.00021 4.59999L6.33221 5.94999L10.3422 3.64399L14.3542 5.94999L16.6862 4.59999L10.3432 0.941986ZM14.3532 7.86199L16.6862 9.21299V11.916L12.6752 14.223V18.837L10.3432 20.188L8.01121 18.837V14.223L4.00021 11.916V9.21299L6.33221 7.86199L10.3422 10.169L14.3542 7.86199H14.3532ZM16.6862 13.827V16.53L14.3542 17.881V15.178L16.6862 13.828V13.827ZM14.3312 19.792L18.3412 17.485V12.872L20.6742 11.52V18.837L14.3312 22.495V19.792ZM18.3412 8.25799L16.0102 6.90699L18.3422 5.55499L20.6742 6.90699V9.60999L18.3422 10.961L18.3412 8.25799ZM8.01221 23.474V20.77L10.3442 22.121L12.6762 20.77V23.473L10.3442 24.824L8.01221 23.473V23.474ZM6.33021 17.88L4.00021 16.53V13.827L6.33221 15.178V17.881L6.33021 17.88ZM10.3422 8.25699L8.01021 6.90699L10.3422 5.55499L12.6742 6.90699L10.3422 8.25799V8.25699ZM4.67621 6.90699L2.34421 8.25799V10.961L0.012207 9.60999V6.90699L2.34421 5.55499L4.67621 6.90699ZM0.012207 11.52L2.34421 12.872V17.485L6.35421 19.792V22.495L0.013207 18.837V11.52H0.012207Z" fill="#F0B90B"/>
</svg>
