<svg width="120" height="120" viewBox="0 0 120 120" fill="none" xmlns="http://www.w3.org/2000/svg">
<path d="M117.727 44.7188C118.641 43.9922 120 44.6719 120 45.8203V93.75C120 99.9609 114.961 105 108.75 105H11.25C5.03906 105 0 99.9609 0 93.75V45.8438C0 44.6719 1.33594 44.0156 2.27344 44.7422C7.52344 48.8203 14.4844 54 38.3906 71.3672C43.3359 74.9766 51.6797 82.5703 60 82.5234C68.3672 82.5938 76.875 74.8359 81.6328 71.3672C105.539 54 112.477 48.7969 117.727 44.7188ZM60 75C65.4375 75.0938 73.2656 68.1563 77.2031 65.2969C108.305 42.7266 110.672 40.7578 117.844 35.1328C119.203 34.0781 120 32.4375 120 30.7031V26.25C120 20.0391 114.961 15 108.75 15H11.25C5.03906 15 0 20.0391 0 26.25V30.7031C0 32.4375 0.796875 34.0547 2.15625 35.1328C9.32813 40.7344 11.6953 42.7266 42.7969 65.2969C46.7344 68.1563 54.5625 75.0938 60 75Z" fill="white"/>
</svg>
