<svg width="478" height="478" viewBox="0 0 478 478" fill="none" xmlns="http://www.w3.org/2000/svg">
<g clip-path="url(#clip0_371_2)">
<path d="M289.773 250.328C289.773 233.661 284.63 220.771 274.344 211.656C264.057 202.542 250.451 197.984 233.523 197.984C219.201 197.984 206.896 202.932 196.609 212.828C186.323 222.724 181.18 234.573 181.18 248.375C181.18 256.188 182.221 263.219 184.305 269.469C186.388 275.589 189.188 280.732 192.703 284.898C196.349 288.935 200.646 292.32 205.594 295.055C210.542 297.659 215.685 299.547 221.023 300.719C226.492 301.891 232.286 302.477 238.406 302.477C253.25 302.477 266.792 298.831 279.031 291.539V305.602C266.401 312.242 252.794 315.562 238.211 315.562C228.836 315.562 219.982 314.326 211.648 311.852C203.445 309.247 195.958 305.406 189.188 300.328C182.417 295.12 177.013 288.089 172.977 279.234C169.07 270.25 167.117 259.964 167.117 248.375C167.117 230.406 173.432 215.172 186.062 202.672C198.693 190.172 214.513 183.922 233.523 183.922C254.487 183.922 271.414 189.846 284.305 201.695C297.326 213.414 303.836 229.625 303.836 250.328V389H289.773V250.328ZM331.961 250.328V389H317.898V250.328C317.898 225.719 310.021 206.188 294.266 191.734C278.51 177.151 258.263 169.859 233.523 169.859C210.607 169.859 191.466 177.477 176.102 192.711C160.737 207.945 153.055 226.5 153.055 248.375C153.055 261.656 155.333 273.57 159.891 284.117C164.578 294.664 170.893 303.128 178.836 309.508C186.779 315.888 195.633 320.771 205.398 324.156C215.294 327.411 225.711 329.039 236.648 329.039C251.492 329.039 265.62 325.589 279.031 318.688V333.531C264.969 339.391 250.776 342.32 236.453 342.32C223.562 342.32 211.323 340.367 199.734 336.461C188.146 332.424 177.794 326.63 168.68 319.078C159.565 311.396 152.339 301.5 147 289.391C141.661 277.151 138.992 263.479 138.992 248.375C138.992 222.724 148.042 200.914 166.141 182.945C184.37 164.846 206.831 155.797 233.523 155.797C252.273 155.797 269.07 159.638 283.914 167.32C298.758 174.872 310.477 185.875 319.07 200.328C327.664 214.781 331.961 231.448 331.961 250.328ZM360.086 250.328V389H346.023V250.328C346.023 228.844 341.076 209.833 331.18 193.297C321.414 176.63 308.003 163.87 290.945 155.016C273.888 146.161 254.747 141.734 233.523 141.734C213.341 141.734 194.917 146.552 178.25 156.188C161.583 165.693 148.497 178.583 138.992 194.859C129.617 211.135 124.93 228.974 124.93 248.375C124.93 265.042 127.99 280.276 134.109 294.078C140.229 307.75 148.432 319.013 158.719 327.867C169.135 336.721 180.919 343.622 194.07 348.57C207.352 353.388 221.219 355.797 235.672 355.797C250.385 355.797 264.839 352.737 279.031 346.617V360.875C264.188 366.474 249.604 369.273 235.281 369.273C212.755 369.273 192.052 364.195 173.172 354.039C154.292 343.883 139.188 329.495 127.859 310.875C116.531 292.255 110.867 271.422 110.867 248.375C110.867 231.969 113.992 216.344 120.242 201.5C126.622 186.656 135.216 173.831 146.023 163.023C156.831 152.216 169.852 143.622 185.086 137.242C200.32 130.862 216.466 127.672 233.523 127.672C257.352 127.672 278.836 132.75 297.977 142.906C317.247 153.062 332.417 167.516 343.484 186.266C354.552 205.016 360.086 226.37 360.086 250.328ZM388.211 250.328V389H374.148V250.328C374.148 223.766 367.964 200.068 355.594 179.234C343.224 158.271 326.362 142.125 305.008 130.797C283.654 119.339 259.826 113.609 233.523 113.609C208.263 113.609 185.151 119.664 164.188 131.773C143.224 143.883 126.753 160.289 114.773 180.992C102.794 201.565 96.8047 224.026 96.8047 248.375C96.8047 264.391 99.3438 279.625 104.422 294.078C109.63 308.401 116.661 320.966 125.516 331.773C134.5 342.451 144.786 351.695 156.375 359.508C168.094 367.32 180.659 373.245 194.07 377.281C207.612 381.318 221.349 383.336 235.281 383.336C250.646 383.336 265.229 380.406 279.031 374.547V389C264.578 394.078 249.734 396.617 234.5 396.617C218.745 396.617 203.38 394.404 188.406 389.977C173.562 385.549 159.76 379.039 147 370.445C134.37 361.721 123.237 351.5 113.602 339.781C103.966 327.932 96.4141 314.13 90.9453 298.375C85.4766 282.62 82.7422 265.953 82.7422 248.375C82.7422 228.193 86.5182 208.987 94.0703 190.758C101.753 172.398 112.169 156.578 125.32 143.297C138.602 129.885 154.617 119.273 173.367 111.461C192.247 103.518 212.299 99.5469 233.523 99.5469C255.138 99.5469 275.451 103.193 294.461 110.484C313.471 117.776 329.878 127.932 343.68 140.953C357.482 153.844 368.354 169.729 376.297 188.609C384.24 207.49 388.211 228.062 388.211 250.328Z" fill="white"/>
</g>
<defs>
<clipPath id="clip0_371_2">
<rect width="478" height="478" fill="white"/>
</clipPath>
</defs>
</svg>
