<svg width="136" height="136" viewBox="0 0 136 136" fill="none" xmlns="http://www.w3.org/2000/svg">
<path d="M68 136C105.555 136 136 105.555 136 68C136 30.4446 105.555 0 68 0C30.4446 0 0 30.4446 0 68C0 105.555 30.4446 136 68 136Z" fill="url(#paint0_linear_333_7)"/>
<path d="M55.5335 99.1667C53.3303 99.1667 53.7048 98.3348 52.9449 96.237L46.4668 74.9173L96.3335 45.3334" fill="#C8DAEA"/>
<path d="M55.5332 99.1667C57.2332 99.1667 57.984 98.3893 58.9332 97.4667L67.9999 88.6505L56.6903 81.8307" fill="#A9C9DD"/>
<path d="M56.6895 81.8323L84.0935 102.079C87.2209 103.804 89.4774 102.911 90.2565 99.1757L101.411 46.61C102.553 42.0314 99.666 39.954 96.674 41.3123L31.173 66.5692C26.702 68.3627 26.7287 70.8571 30.3582 71.9684L47.1672 77.2151L86.0819 52.6643C87.919 51.5502 89.6054 52.1486 88.2216 53.3772" fill="url(#paint1_linear_333_7)"/>
<defs>
<linearGradient id="paint0_linear_333_7" x1="90.712" y1="22.712" x2="56.712" y2="102" gradientUnits="userSpaceOnUse">
<stop stop-color="#37AEE2"/>
<stop offset="1" stop-color="#1E96C8"/>
</linearGradient>
<linearGradient id="paint1_linear_333_7" x1="76.525" y1="68.0054" x2="87.1373" y2="92.1845" gradientUnits="userSpaceOnUse">
<stop stop-color="#EFF7FC"/>
<stop offset="1" stop-color="white"/>
</linearGradient>
</defs>
</svg>
